M48
; DRILL file {KiCad (6.0.2)} date Sun Sep 11 13:32:00 2022
; FORMAT={-:-/ absolute / metric / decimal}
; #@! TF.CreationDate,2022-09-11T13:32:00-05:00
; #@! TF.GenerationSoftware,Kicad,Pcbnew,(6.0.2)
; #@! TF.FileFunction,Plated,1,2,PTH
FMAT,2
METRIC
; #@! TA.AperFunction,Plated,PTH,ViaDrill
T1C0.300
; #@! TA.AperFunction,Plated,PTH,ViaDrill
T2C0.400
; #@! TA.AperFunction,Plated,PTH,ComponentDrill
T3C1.000
; #@! TA.AperFunction,Plated,PTH,ComponentDrill
T4C4.400
%
G90
G05
T1
X131.827Y-99.55
X132.189Y-101.997
X133.013Y-95.487
X133.177Y-94.533
X134.534Y-94.79
X135.211Y-97.029
X135.335Y-105.814
X135.513Y-89.856
X135.555Y-106.672
X135.699Y-94.605
X135.825Y-97.406
X136.256Y-95.698
X136.573Y-101.853
X137.373Y-102.551
X137.373Y-106.089
X138.173Y-94.304
X138.173Y-102.207
X138.681Y-105.891
X139.071Y-94.646
X139.102Y-102.768
X144.636Y-101.929
X145.217Y-102.494
X145.64Y-101.694
X145.76Y-74.666
X146.318Y-102.146
X146.811Y-75.139
X146.831Y-101.629
X147.418Y-102.118
X147.605Y-79.068
X148.408Y-79.559
X149.398Y-82.144
X151.705Y-89.879
X151.967Y-95.046
X152.153Y-103.632
X152.289Y-104.334
X152.332Y-85.546
X152.501Y-105.112
X153.296Y-92.313
X153.482Y-72.796
X154.069Y-103.269
X154.243Y-101.366
X154.251Y-103.977
X154.258Y-100.624
X155.035Y-82.144
X155.209Y-80.75
X156.19Y-79.044
X156.568Y-101.405
X156.569Y-102.439
X156.575Y-95.414
X156.58Y-103.227
X156.582Y-97.311
X156.594Y-96.57
X156.616Y-74.076
X156.617Y-78.481
X157.423Y-111.555
X157.594Y-110.581
X157.805Y-109.66
X157.992Y-98.65
X158.41Y-97.336
X158.823Y-98.607
X159.029Y-81.455
X159.176Y-76.083
X159.211Y-77.727
X159.308Y-111.555
X159.373Y-97.929
X159.483Y-112.293
X159.789Y-113.629
X159.931Y-98.361
X159.941Y-78.572
X160.261Y-82.113
X160.435Y-92.895
X160.476Y-94.711
X160.848Y-114.577
X161.565Y-92.31
X161.758Y-100.801
X161.86Y-89.124
X162.157Y-100.121
X162.296Y-91.545
X162.984Y-70.496
X163.077Y-84.689
X163.457Y-81.301
X163.655Y-70.915
X164.628Y-104.66
X164.757Y-88.982
X165.075Y-91.668
X165.25Y-92.49
X165.34Y-104.848
X165.86Y-107.334
X166.782Y-105.018
X166.793Y-82.061
X166.86Y-108.01
X166.915Y-80.996
X167.483Y-91.432
X167.892Y-88.087
X167.973Y-75.194
X168.01Y-77.491
X168.012Y-75.963
X168.09Y-104.348
X168.337Y-88.664
X168.365Y-84.494
X168.497Y-93.327
X168.915Y-83.604
X169.079Y-85.44
X169.459Y-110.93
X170.139Y-93.507
X170.504Y-75.086
X170.593Y-75.818
X170.954Y-109.19
X171.029Y-71.625
X171.224Y-79.916
X171.241Y-84.323
X171.294Y-73.407
X171.642Y-72.561
X172.139Y-91.433
X172.19Y-90.662
X172.462Y-98.711
X172.466Y-94.043
X172.473Y-112.785
X173.641Y-92.401
X173.962Y-114.088
X176.63Y-81.029
T2
X130.468Y-115.962
X139.354Y-112.284
X140.084Y-95.196
X142.475Y-96.563
X152.512Y-96.563
X157.562Y-104.852
X157.872Y-87.483
X160.014Y-75.347
X162.072Y-109.635
X164.208Y-92.085
X164.628Y-99.529
X166.255Y-73.705
X166.912Y-102.374
X169.598Y-98.727
X173.106Y-95.42
T3
X131.855Y-68.476
X131.855Y-72.883
T4
X131.494Y-109.212
X175.547Y-109.173
T0
M30
