%TF.GenerationSoftware,KiCad,Pcbnew,(6.0.2)*%
%TF.CreationDate,2022-09-11T13:31:58-05:00*%
%TF.ProjectId,REF1790,52454631-3739-4302-9e6b-696361645f70,rev?*%
%TF.SameCoordinates,Original*%
%TF.FileFunction,Copper,L2,Bot*%
%TF.FilePolarity,Positive*%
%FSLAX46Y46*%
G04 Gerber Fmt 4.6, Leading zero omitted, Abs format (unit mm)*
G04 Created by KiCad (PCBNEW (6.0.2)) date 2022-09-11 13:31:58*
%MOMM*%
%LPD*%
G01*
G04 APERTURE LIST*
%TA.AperFunction,ComponentPad*%
%ADD10C,1.200000*%
%TD*%
%TA.AperFunction,ComponentPad*%
%ADD11C,4.560000*%
%TD*%
%TA.AperFunction,ViaPad*%
%ADD12C,0.500000*%
%TD*%
%TA.AperFunction,ViaPad*%
%ADD13C,0.800000*%
%TD*%
%TA.AperFunction,Conductor*%
%ADD14C,0.200000*%
%TD*%
%TA.AperFunction,Conductor*%
%ADD15C,0.500000*%
%TD*%
G04 APERTURE END LIST*
D10*
%TO.P,USB1,10*%
%TO.N,N/C*%
X131855000Y-72883000D03*
%TO.P,USB1,11*%
X131855000Y-68476000D03*
%TD*%
D11*
%TO.P,Hole1,1*%
%TO.N,N/C*%
X175547000Y-109173000D03*
%TD*%
%TO.P,Hole,1*%
%TO.N,N/C*%
X131494000Y-109212000D03*
%TD*%
D12*
%TO.N,/Route3*%
X171223500Y-79916100D03*
X147605000Y-79068000D03*
D13*
%TO.N,/GND*%
X142475300Y-96563200D03*
X152511600Y-96563200D03*
X140084400Y-95195800D03*
D12*
%TO.N,/Route1*%
X148408000Y-79558600D03*
X171240700Y-84323300D03*
%TO.N,/2142.D-*%
X156190200Y-79043600D03*
X146810900Y-75139300D03*
%TO.N,/2142.D+*%
X145760100Y-74666500D03*
X156617400Y-78480600D03*
D13*
%TO.N,/VCC*%
X139354000Y-112284400D03*
X157871800Y-87482800D03*
X162071900Y-109634600D03*
X160013600Y-75346700D03*
X164208100Y-92085300D03*
X166911900Y-102373700D03*
X166255000Y-73704700D03*
X157561900Y-104852100D03*
X130467600Y-115961900D03*
%TO.N,/VCC.Internal*%
X173106500Y-95420200D03*
X164627600Y-99529300D03*
X169598400Y-98727000D03*
D12*
%TO.N,/P0.23*%
X153482000Y-72796100D03*
X162984300Y-70496100D03*
%TO.N,/P0.31*%
X149398000Y-82143900D03*
X155034900Y-82143900D03*
%TO.N,/P1.26*%
X163076700Y-84688800D03*
X152332000Y-85545900D03*
%TO.N,/2142.Reset*%
X163654800Y-70915200D03*
X176629700Y-81029400D03*
X172461900Y-98711000D03*
%TO.N,/P0.21*%
X169078800Y-85439700D03*
X156616100Y-74075600D03*
%TO.N,/P0.22*%
X167483500Y-91432100D03*
X163456800Y-81300600D03*
%TO.N,/P1.19*%
X172190400Y-90662500D03*
X159175700Y-76083100D03*
%TO.N,/P1.18*%
X172138800Y-91433100D03*
X155209200Y-80750400D03*
%TO.N,/P1.17*%
X167891700Y-88086600D03*
X160260800Y-82113300D03*
%TO.N,/P1.16*%
X168336700Y-88664300D03*
X159028800Y-81454700D03*
%TO.N,/P0.0*%
X171642000Y-72560600D03*
X159211100Y-77726600D03*
%TO.N,/P0.1*%
X171029500Y-71625400D03*
X159941100Y-78571700D03*
%TO.N,/P0.4*%
X168496600Y-93327300D03*
X164756600Y-88982200D03*
%TO.N,/P1.22*%
X168010000Y-77491000D03*
X173641300Y-92400600D03*
%TO.N,/P1.21*%
X170593300Y-75817800D03*
X172466400Y-94043000D03*
%TO.N,/P0.15*%
X165075100Y-91668300D03*
X168012400Y-75963500D03*
%TO.N,/P0.16*%
X165250100Y-92489800D03*
X170504500Y-75086000D03*
%TO.N,/P0.17*%
X171294300Y-73407300D03*
X168089900Y-104348100D03*
%TO.N,/P1.20*%
X170138800Y-93506700D03*
X167972800Y-75194300D03*
%TO.N,/P0.19*%
X168365200Y-84493700D03*
X166914600Y-80996300D03*
%TO.N,/P0.20*%
X166792600Y-82060800D03*
X168915400Y-83604300D03*
%TO.N,/SRAM.A0*%
X162296000Y-91544800D03*
X133013100Y-95487000D03*
%TO.N,/SRAM.A1*%
X133177300Y-94532900D03*
X161860000Y-89124000D03*
%TO.N,/SRAM.A2*%
X135699300Y-94605100D03*
X161564900Y-92310100D03*
%TO.N,/SRAM.A3*%
X160476400Y-94710700D03*
X136255700Y-95698000D03*
%TO.N,/SRAM.A4*%
X135211400Y-97029000D03*
X160434800Y-92895100D03*
%TO.N,/CS.ROM*%
X135825300Y-97405700D03*
X156582200Y-97311100D03*
%TO.N,/AD0*%
X136573000Y-101853300D03*
X156569300Y-102438600D03*
%TO.N,/AD1*%
X137373000Y-106089300D03*
X154069400Y-103268600D03*
%TO.N,/AD2*%
X138173000Y-102207000D03*
X156579800Y-103227000D03*
%TO.N,/AD3*%
X138681200Y-105890600D03*
X154250700Y-103977400D03*
%TO.N,/SRAM.WE*%
X156575200Y-95413800D03*
X144636400Y-101928900D03*
%TO.N,/SRAM.A5*%
X145217400Y-102494300D03*
X159930900Y-98361500D03*
%TO.N,/SRAM.A6*%
X145639900Y-101694300D03*
X159373200Y-97928900D03*
%TO.N,/SRAM.A7*%
X158823100Y-98607200D03*
X146317800Y-102145800D03*
%TO.N,/SRAM.A8*%
X146831400Y-101629300D03*
X158410500Y-97335600D03*
%TO.N,/SRAM.A9*%
X157991800Y-98650200D03*
X147418000Y-102118200D03*
%TO.N,/SRAM.A10*%
X151966600Y-95045800D03*
X156593900Y-96570500D03*
%TO.N,/AD9*%
X152152800Y-103631600D03*
X157805200Y-109659800D03*
%TO.N,/AD10*%
X152289100Y-104333500D03*
X157594000Y-110581400D03*
%TO.N,/AD11*%
X157422900Y-111555200D03*
X152501300Y-105111600D03*
%TO.N,/AD12*%
X161757700Y-100801300D03*
X139070800Y-94645700D03*
%TO.N,/AD13*%
X162156700Y-100121300D03*
X138173000Y-94304500D03*
%TO.N,/AD14*%
X139102500Y-102767900D03*
X159307800Y-111555200D03*
X164628000Y-104660100D03*
%TO.N,/AD15*%
X137372500Y-102550600D03*
X165339600Y-104848200D03*
X159482800Y-112292800D03*
%TO.N,/SRAM.OE*%
X135513100Y-89856000D03*
X151705400Y-89879000D03*
%TO.N,/SRAM.A15*%
X153295800Y-92313000D03*
X134534000Y-94790500D03*
%TO.N,/A16*%
X160848300Y-114577400D03*
X132188600Y-101997200D03*
%TO.N,/A17*%
X131826900Y-99550200D03*
X159789400Y-113628900D03*
%TO.N,/Read*%
X135555200Y-106672000D03*
X154258100Y-100624300D03*
%TO.N,/Write*%
X135335000Y-105814000D03*
X154242500Y-101365900D03*
%TO.N,/CS.SRAM*%
X156567700Y-101405400D03*
X173962000Y-114088100D03*
%TO.N,/A23*%
X165860000Y-107334000D03*
X172473000Y-112784800D03*
%TO.N,/A22*%
X166781800Y-105018100D03*
X170954000Y-109190300D03*
%TO.N,/A21*%
X166860000Y-108010100D03*
X169459000Y-110930400D03*
%TD*%
D14*
%TO.N,/Route3*%
X147683200Y-78989800D02*
X148728600Y-78989800D01*
X170990300Y-79682900D02*
X171223500Y-79916100D01*
X148728600Y-78989800D02*
X149421700Y-79682900D01*
X149421700Y-79682900D02*
X170990300Y-79682900D01*
X147605000Y-79068000D02*
X147683200Y-78989800D01*
D15*
%TO.N,/GND*%
X141107900Y-95195800D02*
X142475300Y-96563200D01*
X152511600Y-96563200D02*
X142475300Y-96563200D01*
X140084400Y-95195800D02*
X141107900Y-95195800D01*
D14*
%TO.N,/Route1*%
X148972400Y-80123000D02*
X167040400Y-80123000D01*
X148408000Y-79558600D02*
X148972400Y-80123000D01*
X167040400Y-80123000D02*
X171240700Y-84323300D01*
%TO.N,/2142.D-*%
X146810900Y-75139300D02*
X150715200Y-79043600D01*
X150715200Y-79043600D02*
X156190200Y-79043600D01*
%TO.N,/2142.D+*%
X152720400Y-74583600D02*
X156617400Y-78480600D01*
X145760100Y-74666500D02*
X145843000Y-74583600D01*
X145843000Y-74583600D02*
X152720400Y-74583600D01*
D15*
%TO.N,/VCC*%
X165450000Y-103933000D02*
X166039700Y-104522700D01*
X161655600Y-73704700D02*
X166255000Y-73704700D01*
X166039700Y-105666800D02*
X162071900Y-109634600D01*
X157561900Y-104852100D02*
X158481000Y-103933000D01*
X158481000Y-103933000D02*
X165450000Y-103933000D01*
X165450000Y-103933000D02*
X165450000Y-103835600D01*
X135676500Y-115961900D02*
X139354000Y-112284400D01*
X142389900Y-115320300D02*
X161151100Y-115320300D01*
X166039700Y-104522700D02*
X166039700Y-105666800D01*
X164208100Y-90470800D02*
X161220100Y-87482800D01*
X161151100Y-115320300D02*
X162071900Y-114399500D01*
X164208100Y-92085300D02*
X164208100Y-90470800D01*
X162071900Y-114399500D02*
X162071900Y-109634600D01*
X139354000Y-112284400D02*
X142389900Y-115320300D01*
X130467600Y-115961900D02*
X135676500Y-115961900D01*
X165450000Y-103835600D02*
X166911900Y-102373700D01*
X160013600Y-75346700D02*
X161655600Y-73704700D01*
X161220100Y-87482800D02*
X157871800Y-87482800D01*
%TO.N,/VCC.Internal*%
X172905200Y-95420200D02*
X169598400Y-98727000D01*
X165429900Y-98727000D02*
X164627600Y-99529300D01*
X173106500Y-95420200D02*
X172905200Y-95420200D01*
X169598400Y-98727000D02*
X165429900Y-98727000D01*
D14*
%TO.N,/P0.23*%
X162984300Y-70496100D02*
X155782000Y-70496100D01*
X155782000Y-70496100D02*
X153482000Y-72796100D01*
%TO.N,/P0.31*%
X155034900Y-82143900D02*
X149398000Y-82143900D01*
%TO.N,/P1.26*%
X162219600Y-85545900D02*
X163076700Y-84688800D01*
X152332000Y-85545900D02*
X162219600Y-85545900D01*
%TO.N,/2142.Reset*%
X175970100Y-95202800D02*
X175970100Y-81029400D01*
X175970100Y-81029400D02*
X176629700Y-81029400D01*
X175970100Y-75788000D02*
X171097300Y-70915200D01*
X171097300Y-70915200D02*
X163654800Y-70915200D01*
X175970100Y-81029400D02*
X175970100Y-75788000D01*
X172461900Y-98711000D02*
X175970100Y-95202800D01*
%TO.N,/P0.21*%
X171791000Y-84600500D02*
X170951800Y-85439700D01*
X171293500Y-79199900D02*
X171791000Y-79697400D01*
X159239200Y-79199900D02*
X171293500Y-79199900D01*
X171791000Y-79697400D02*
X171791000Y-84600500D01*
X170951800Y-85439700D02*
X169078800Y-85439700D01*
X156616100Y-74075600D02*
X156616100Y-76576800D01*
X156616100Y-76576800D02*
X159239200Y-79199900D01*
%TO.N,/P0.22*%
X163456800Y-81300600D02*
X168886800Y-86730600D01*
X168886800Y-90028800D02*
X167483500Y-91432100D01*
X168886800Y-86730600D02*
X168886800Y-90028800D01*
%TO.N,/P1.19*%
X172215900Y-79533600D02*
X172215900Y-90637000D01*
X159175700Y-76083100D02*
X161892300Y-78799700D01*
X161892300Y-78799700D02*
X171482000Y-78799700D01*
X172215900Y-90637000D02*
X172190400Y-90662500D01*
X171482000Y-78799700D02*
X172215900Y-79533600D01*
%TO.N,/P1.18*%
X168528700Y-85667400D02*
X171590700Y-88729400D01*
X171590700Y-90885000D02*
X172138800Y-91433100D01*
X168528700Y-85555700D02*
X168528700Y-85667400D01*
X163723400Y-80750400D02*
X168528700Y-85555700D01*
X155209200Y-80750400D02*
X163723400Y-80750400D01*
X171590700Y-88729400D02*
X171590700Y-90885000D01*
%TO.N,/P1.17*%
X161918400Y-82113300D02*
X167891700Y-88086600D01*
X160260800Y-82113300D02*
X161918400Y-82113300D01*
%TO.N,/P1.16*%
X162081200Y-81454700D02*
X159028800Y-81454700D01*
X168336700Y-88664300D02*
X168441800Y-88559200D01*
X168441800Y-87815300D02*
X162081200Y-81454700D01*
X168441800Y-88559200D02*
X168441800Y-87815300D01*
%TO.N,/P0.0*%
X158625000Y-77140500D02*
X159211100Y-77726600D01*
X161771100Y-72560600D02*
X158625000Y-75706700D01*
X171642000Y-72560600D02*
X161771100Y-72560600D01*
X158625000Y-75706700D02*
X158625000Y-77140500D01*
%TO.N,/P0.1*%
X171029500Y-71625400D02*
X162092900Y-71625400D01*
X159219300Y-78571700D02*
X159941100Y-78571700D01*
X162092900Y-71625400D02*
X158204100Y-75514200D01*
X158204100Y-75514200D02*
X158204100Y-77556500D01*
X158204100Y-77556500D02*
X159219300Y-78571700D01*
%TO.N,/P0.4*%
X168496600Y-93327300D02*
X164756600Y-89587300D01*
X164756600Y-89587300D02*
X164756600Y-88982200D01*
%TO.N,/P1.22*%
X171755100Y-77364000D02*
X171189600Y-77364000D01*
X167386100Y-76867100D02*
X168010000Y-77491000D01*
X167703500Y-74644200D02*
X167386100Y-74961600D01*
X173641300Y-92400600D02*
X173641300Y-79250200D01*
X173641300Y-79250200D02*
X171755100Y-77364000D01*
X171189600Y-77364000D02*
X168469800Y-74644200D01*
X168469800Y-74644200D02*
X167703500Y-74644200D01*
X167386100Y-74961600D02*
X167386100Y-76867100D01*
%TO.N,/P1.21*%
X170774700Y-75817800D02*
X170593300Y-75817800D01*
X172466400Y-94043000D02*
X172776900Y-94043000D01*
X174191400Y-79234500D02*
X170774700Y-75817800D01*
X172776900Y-94043000D02*
X174191400Y-92628500D01*
X174191400Y-92628500D02*
X174191400Y-79234500D01*
%TO.N,/P0.15*%
X168754100Y-93914700D02*
X170398700Y-92270100D01*
X171565200Y-78305700D02*
X170354600Y-78305700D01*
X166059600Y-91668300D02*
X168306000Y-93914700D01*
X168306000Y-93914700D02*
X168754100Y-93914700D01*
X165075100Y-91668300D02*
X166059600Y-91668300D01*
X172150000Y-92270100D02*
X172747800Y-91672300D01*
X170398700Y-92270100D02*
X172150000Y-92270100D01*
X172747800Y-91672300D02*
X172747800Y-79488300D01*
X170354600Y-78305700D02*
X168012400Y-75963500D01*
X172747800Y-79488300D02*
X171565200Y-78305700D01*
%TO.N,/P0.16*%
X174639200Y-92802800D02*
X174639200Y-78990000D01*
X174639200Y-78990000D02*
X170735200Y-75086000D01*
X172806800Y-94635200D02*
X174639200Y-92802800D01*
X165250100Y-92489800D02*
X167395500Y-94635200D01*
X170735200Y-75086000D02*
X170504500Y-75086000D01*
X167395500Y-94635200D02*
X172806800Y-94635200D01*
%TO.N,/P0.17*%
X175039300Y-95328300D02*
X175039300Y-77152300D01*
X168089900Y-102277700D02*
X175039300Y-95328300D01*
X175039300Y-77152300D02*
X171294300Y-73407300D01*
X168089900Y-104348100D02*
X168089900Y-102277700D01*
%TO.N,/P1.20*%
X173147900Y-91838000D02*
X173147900Y-79322600D01*
X171589400Y-77764100D02*
X171023600Y-77764100D01*
X171479200Y-93506700D02*
X173147900Y-91838000D01*
X171023600Y-77764100D02*
X168453800Y-75194300D01*
X170138800Y-93506700D02*
X171479200Y-93506700D01*
X168453800Y-75194300D02*
X167972800Y-75194300D01*
X173147900Y-79322600D02*
X171589400Y-77764100D01*
%TO.N,/P0.19*%
X166242400Y-81668500D02*
X166242400Y-82370900D01*
X166242400Y-82370900D02*
X168365200Y-84493700D01*
X166914600Y-80996300D02*
X166242400Y-81668500D01*
%TO.N,/P0.20*%
X168336100Y-83604300D02*
X168915400Y-83604300D01*
X166792600Y-82060800D02*
X168336100Y-83604300D01*
%TO.N,/SRAM.A0*%
X133013100Y-95487000D02*
X136955300Y-91544800D01*
X136955300Y-91544800D02*
X162296000Y-91544800D01*
%TO.N,/SRAM.A1*%
X137180700Y-90529500D02*
X160454500Y-90529500D01*
X160454500Y-90529500D02*
X161860000Y-89124000D01*
X133177300Y-94532900D02*
X137180700Y-90529500D01*
%TO.N,/SRAM.A2*%
X161564900Y-92310200D02*
X161564900Y-92310100D01*
X137409200Y-92895200D02*
X158980600Y-92895200D01*
X159565600Y-92310200D02*
X161564900Y-92310200D01*
X135699300Y-94605100D02*
X137409200Y-92895200D01*
X158980600Y-92895200D02*
X159565600Y-92310200D01*
%TO.N,/SRAM.A3*%
X137972000Y-93695400D02*
X159461100Y-93695400D01*
X159461100Y-93695400D02*
X160476400Y-94710700D01*
X136255700Y-95411700D02*
X137972000Y-93695400D01*
X136255700Y-95698000D02*
X136255700Y-95411700D01*
%TO.N,/SRAM.A4*%
X160434800Y-92895100D02*
X160034600Y-93295300D01*
X135211400Y-95890200D02*
X135211400Y-97029000D01*
X137806300Y-93295300D02*
X135211400Y-95890200D01*
X160034600Y-93295300D02*
X137806300Y-93295300D01*
%TO.N,/CS.ROM*%
X156582200Y-97311100D02*
X156487700Y-97405600D01*
X135825300Y-97405600D02*
X135825300Y-97405700D01*
X156487700Y-97405600D02*
X135825300Y-97405600D01*
%TO.N,/AD0*%
X153043600Y-101481000D02*
X151096300Y-101481000D01*
X151096300Y-101481000D02*
X148272300Y-104305000D01*
X148272300Y-104305000D02*
X146405100Y-104305000D01*
X146405100Y-104305000D02*
X146028400Y-103928300D01*
X136780500Y-101645800D02*
X136573000Y-101853300D01*
X156569300Y-102438600D02*
X156046700Y-101916000D01*
X142443800Y-101645800D02*
X136780500Y-101645800D01*
X156046700Y-101916000D02*
X153478600Y-101916000D01*
X144726300Y-103928300D02*
X142443800Y-101645800D01*
X146028400Y-103928300D02*
X144726300Y-103928300D01*
X153478600Y-101916000D02*
X153043600Y-101481000D01*
%TO.N,/AD1*%
X148935500Y-105505300D02*
X145900900Y-105505300D01*
X153133800Y-103268600D02*
X152546500Y-102681300D01*
X151759500Y-102681300D02*
X148935500Y-105505300D01*
X154069400Y-103268600D02*
X153133800Y-103268600D01*
X138142800Y-105319500D02*
X137373000Y-106089300D01*
X145900900Y-105505300D02*
X145715100Y-105319500D01*
X152546500Y-102681300D02*
X151759500Y-102681300D01*
X145715100Y-105319500D02*
X138142800Y-105319500D01*
%TO.N,/AD2*%
X151262000Y-101881100D02*
X148438000Y-104705100D01*
X144622500Y-104390300D02*
X142439200Y-102207000D01*
X148438000Y-104705100D02*
X146232300Y-104705100D01*
X145917500Y-104390300D02*
X144622500Y-104390300D01*
X155668900Y-102316100D02*
X153312900Y-102316100D01*
X156579800Y-103227000D02*
X155668900Y-102316100D01*
X146232300Y-104705100D02*
X145917500Y-104390300D01*
X152877900Y-101881100D02*
X151262000Y-101881100D01*
X153312900Y-102316100D02*
X152877900Y-101881100D01*
X142439200Y-102207000D02*
X138173000Y-102207000D01*
%TO.N,/AD3*%
X153276800Y-103977400D02*
X152380800Y-103081400D01*
X154250700Y-103977400D02*
X153276800Y-103977400D01*
X151925200Y-103081400D02*
X149101200Y-105905400D01*
X138696000Y-105905400D02*
X138681200Y-105890600D01*
X149101200Y-105905400D02*
X138696000Y-105905400D01*
X152380800Y-103081400D02*
X151925200Y-103081400D01*
%TO.N,/SRAM.WE*%
X148609100Y-97873200D02*
X144636400Y-101845900D01*
X156575200Y-95413800D02*
X157144000Y-95982600D01*
X157144000Y-95982600D02*
X157144000Y-97536900D01*
X157144000Y-97536900D02*
X156807700Y-97873200D01*
X156807700Y-97873200D02*
X148609100Y-97873200D01*
X144636400Y-101845900D02*
X144636400Y-101928900D01*
%TO.N,/SRAM.A5*%
X159930900Y-98361500D02*
X158218200Y-100074200D01*
X150805700Y-100074200D02*
X147811500Y-103068400D01*
X147811500Y-103068400D02*
X146865900Y-103068400D01*
X146525500Y-102728000D02*
X145451100Y-102728000D01*
X146865900Y-103068400D02*
X146525500Y-102728000D01*
X145451100Y-102728000D02*
X145217400Y-102494300D01*
X158218200Y-100074200D02*
X150805700Y-100074200D01*
%TO.N,/SRAM.A6*%
X157860400Y-97420000D02*
X157007000Y-98273400D01*
X159373200Y-97928900D02*
X159373200Y-97520300D01*
X159373200Y-97520300D02*
X158638400Y-96785500D01*
X157007000Y-98273400D02*
X149060800Y-98273400D01*
X157860400Y-97107800D02*
X157860400Y-97420000D01*
X158638400Y-96785500D02*
X158182700Y-96785500D01*
X149060800Y-98273400D02*
X145639900Y-101694300D01*
X158182700Y-96785500D02*
X157860400Y-97107800D01*
%TO.N,/SRAM.A7*%
X147645800Y-102668300D02*
X150640000Y-99674100D01*
X150640000Y-99674100D02*
X157756200Y-99674100D01*
X147031600Y-102668300D02*
X147645800Y-102668300D01*
X146317800Y-102145800D02*
X146509100Y-102145800D01*
X157756200Y-99674100D02*
X158823100Y-98607200D01*
X146509100Y-102145800D02*
X147031600Y-102668300D01*
%TO.N,/SRAM.A8*%
X158410500Y-97435700D02*
X157172700Y-98673500D01*
X157172700Y-98673500D02*
X149787200Y-98673500D01*
X149787200Y-98673500D02*
X146831400Y-101629300D01*
X158410500Y-97335600D02*
X158410500Y-97435700D01*
%TO.N,/SRAM.A9*%
X157568400Y-99073600D02*
X150462600Y-99073600D01*
X157991800Y-98650200D02*
X157568400Y-99073600D01*
X150462600Y-99073600D02*
X147418000Y-102118200D01*
%TO.N,/SRAM.A10*%
X156593900Y-96570500D02*
X155069200Y-95045800D01*
X155069200Y-95045800D02*
X151966600Y-95045800D01*
%TO.N,/AD9*%
X157805200Y-109071600D02*
X152365200Y-103631600D01*
X157805200Y-109659800D02*
X157805200Y-109071600D01*
X152365200Y-103631600D02*
X152152800Y-103631600D01*
%TO.N,/AD10*%
X152607400Y-104439700D02*
X152395200Y-104439700D01*
X153051400Y-106038800D02*
X153051400Y-104883700D01*
X152395200Y-104439600D02*
X152289100Y-104333500D01*
X153051400Y-104883700D02*
X152607400Y-104439700D01*
X152395200Y-104439700D02*
X152395200Y-104439600D01*
X157594000Y-110581400D02*
X153051400Y-106038800D01*
%TO.N,/AD11*%
X152501300Y-106633600D02*
X152501300Y-105111600D01*
X157422900Y-111555200D02*
X152501300Y-106633600D01*
%TO.N,/AD12*%
X156974300Y-94495600D02*
X161600300Y-99121600D01*
X161600300Y-100643900D02*
X161757700Y-100801300D01*
X139220900Y-94495600D02*
X156974300Y-94495600D01*
X139070800Y-94645700D02*
X139220900Y-94495600D01*
X161600300Y-99121600D02*
X161600300Y-100643900D01*
%TO.N,/AD13*%
X138173000Y-94304500D02*
X138382000Y-94095500D01*
X162156700Y-99079800D02*
X162156700Y-100121300D01*
X157172400Y-94095500D02*
X162156700Y-99079800D01*
X138382000Y-94095500D02*
X157172400Y-94095500D01*
%TO.N,/AD14*%
X159307800Y-107615100D02*
X159307800Y-111555200D01*
X146066600Y-105105200D02*
X145751800Y-104790400D01*
X145751800Y-104790400D02*
X141125000Y-104790400D01*
X159307800Y-107615100D02*
X154408900Y-102716200D01*
X153147200Y-102716200D02*
X152712200Y-102281200D01*
X161673000Y-107615100D02*
X164628000Y-104660100D01*
X141125000Y-104790400D02*
X139102500Y-102767900D01*
X152712200Y-102281200D02*
X151427700Y-102281200D01*
X151427700Y-102281200D02*
X148603700Y-105105200D01*
X148603700Y-105105200D02*
X146066600Y-105105200D01*
X159307800Y-107615100D02*
X161673000Y-107615100D01*
X154408900Y-102716200D02*
X153147200Y-102716200D01*
%TO.N,/AD15*%
X136822900Y-103100200D02*
X137372500Y-102550600D01*
X142636100Y-112130300D02*
X136822900Y-106317100D01*
X159482800Y-112130300D02*
X159585600Y-112130300D01*
X159482800Y-112130300D02*
X142636100Y-112130300D01*
X160381100Y-111334800D02*
X160381100Y-109806700D01*
X159585600Y-112130300D02*
X160381100Y-111334800D01*
X159482800Y-112292800D02*
X159482800Y-112130300D01*
X160381100Y-109806700D02*
X165339600Y-104848200D01*
X136822900Y-106317100D02*
X136822900Y-103100200D01*
%TO.N,/SRAM.OE*%
X135536100Y-89879000D02*
X135513100Y-89856000D01*
X151705400Y-89879000D02*
X135536100Y-89879000D01*
%TO.N,/SRAM.A15*%
X153295800Y-92313000D02*
X137011500Y-92313000D01*
X137011500Y-92313000D02*
X134534000Y-94790500D01*
%TO.N,/A16*%
X135659700Y-108141000D02*
X132188600Y-104669900D01*
X137507400Y-108141000D02*
X135659700Y-108141000D01*
X132188600Y-104669900D02*
X132188600Y-101997200D01*
X160848300Y-114577400D02*
X143943800Y-114577400D01*
X143943800Y-114577400D02*
X137507400Y-108141000D01*
%TO.N,/A17*%
X134209100Y-101932400D02*
X131826900Y-99550200D01*
X143561100Y-113628900D02*
X137673100Y-107740900D01*
X137673100Y-107740900D02*
X135825400Y-107740900D01*
X135825400Y-107740900D02*
X134209100Y-106124600D01*
X134209100Y-106124600D02*
X134209100Y-101932400D01*
X159789400Y-113628900D02*
X143561100Y-113628900D01*
%TO.N,/Read*%
X146359800Y-103128100D02*
X146700200Y-103468500D01*
X135398000Y-106672000D02*
X134748100Y-106022100D01*
X146700200Y-103468500D02*
X147977200Y-103468500D01*
X135555200Y-106672000D02*
X135398000Y-106672000D01*
X136186600Y-100804800D02*
X142734400Y-100804800D01*
X147977200Y-103468500D02*
X150821400Y-100624300D01*
X134748100Y-102243300D02*
X136186600Y-100804800D01*
X134748100Y-106022100D02*
X134748100Y-102243300D01*
X142734400Y-100804800D02*
X145057700Y-103128100D01*
X145057700Y-103128100D02*
X146359800Y-103128100D01*
X150821400Y-100624300D02*
X154258100Y-100624300D01*
%TO.N,/Write*%
X136373200Y-101223100D02*
X135335000Y-102261300D01*
X142586900Y-101223100D02*
X136373200Y-101223100D01*
X146534500Y-103868600D02*
X146194100Y-103528200D01*
X135335000Y-102261300D02*
X135335000Y-105814000D01*
X148142900Y-103868600D02*
X146534500Y-103868600D01*
X150930600Y-101080900D02*
X148142900Y-103868600D01*
X154242500Y-101365900D02*
X153494300Y-101365900D01*
X153209300Y-101080900D02*
X150930600Y-101080900D01*
X144892000Y-103528200D02*
X142586900Y-101223100D01*
X153494300Y-101365900D02*
X153209300Y-101080900D01*
X146194100Y-103528200D02*
X144892000Y-103528200D01*
%TO.N,/CS.SRAM*%
X156567700Y-101405400D02*
X166986500Y-101405400D01*
X166986500Y-101405400D02*
X167621100Y-102040000D01*
X167621100Y-102040000D02*
X167621100Y-104039000D01*
X173962000Y-111302700D02*
X173962000Y-114088100D01*
X167539800Y-104120300D02*
X167539800Y-104880500D01*
X167539800Y-104880500D02*
X173962000Y-111302700D01*
X167621100Y-104039000D02*
X167539800Y-104120300D01*
%TO.N,/A23*%
X172473000Y-112784800D02*
X167022200Y-107334000D01*
X167022200Y-107334000D02*
X165860000Y-107334000D01*
%TO.N,/A22*%
X170954000Y-109190300D02*
X166781800Y-105018100D01*
%TO.N,/A21*%
X166860000Y-108331400D02*
X166860000Y-108010100D01*
X169459000Y-110930400D02*
X166860000Y-108331400D01*
%TD*%
M02*
