M48
; DRILL file {KiCad (6.0.2)} date Sat Sep 24 00:31:49 2022
; FORMAT={-:-/ absolute / metric / decimal}
; #@! TF.CreationDate,2022-09-24T00:31:49-05:00
; #@! TF.GenerationSoftware,Kicad,Pcbnew,(6.0.2)
; #@! TF.FileFunction,Plated,1,2,PTH
FMAT,2
METRIC
; #@! TA.AperFunction,Plated,PTH,ViaDrill
T1C0.300
; #@! TA.AperFunction,Plated,PTH,ViaDrill
T2C0.400
; #@! TA.AperFunction,Plated,PTH,ComponentDrill
T3C1.000
; #@! TA.AperFunction,Plated,PTH,ComponentDrill
T4C4.400
%
G90
G05
T1
X133.102Y-99.322
X133.113Y-114.959
X133.479Y-95.5
X133.529Y-94.325
X133.604Y-97.996
X134.173Y-91.349
X134.3Y-97.458
X134.411Y-115.825
X134.723Y-100.562
X135.253Y-94.831
X135.465Y-116.095
X135.803Y-99.811
X136.573Y-94.693
X136.573Y-102.895
X137.373Y-94.309
X137.373Y-100.138
X138.173Y-99.485
X139.144Y-101.881
X140.961Y-111.706
X141.414Y-101.501
X142.173Y-102.007
X142.455Y-112.059
X142.874Y-70.926
X142.973Y-102.405
X143.954Y-109.555
X144.573Y-97.007
X145.242Y-75.002
X145.373Y-97.557
X145.473Y-112.243
X146.173Y-94.974
X146.314Y-108.521
X146.973Y-95.861
X147.773Y-96.487
X147.995Y-95.787
X149.279Y-91.599
X149.398Y-82.022
X151.796Y-106.05
X152.332Y-83.282
X152.378Y-91.199
X153.116Y-90.649
X153.482Y-70.545
X153.677Y-102.968
X154.046Y-108.237
X154.254Y-98.885
X154.255Y-103.676
X154.601Y-106.601
X154.726Y-107.556
X155.136Y-81.891
X155.491Y-107.503
X156.567Y-101.898
X156.574Y-98.155
X156.616Y-75.997
X156.631Y-77.81
X156.645Y-109.328
X156.664Y-95.325
X156.751Y-91.024
X157.323Y-101.775
X157.903Y-96.209
X158.058Y-109.728
X158.117Y-102.577
X158.939Y-94.996
X158.988Y-109.738
X159.017Y-81.811
X159.024Y-74.954
X159.025Y-79.857
X159.059Y-96.004
X159.179Y-93.797
X159.312Y-80.71
X159.576Y-78.135
X159.695Y-97.188
X159.86Y-89.126
X159.897Y-109.394
X160.302Y-94.92
X160.415Y-92.375
X160.992Y-109.064
X161.039Y-114.215
X161.359Y-77.74
X161.36Y-97.753
X161.425Y-98.471
X161.487Y-78.784
X161.664Y-115.13
X161.724Y-105.006
X162.008Y-84.841
X162.092Y-108.907
X163.151Y-70.916
X163.38Y-75.538
X163.462Y-116.297
X163.671Y-73.302
X163.784Y-77.603
X164.486Y-104.648
X164.605Y-82.3
X164.757Y-76.319
X165.364Y-75.897
X165.42Y-104.508
X165.86Y-107.341
X166.237Y-86.055
X166.36Y-104.998
X166.455Y-76.806
X166.573Y-87.978
X166.979Y-84.675
X167.182Y-107.331
X167.216Y-86.632
X167.36Y-104.03
X167.376Y-88.928
X167.609Y-75.452
X167.958Y-81.163
X168.123Y-88.269
X168.165Y-71.952
X168.36Y-91.434
X168.727Y-89.113
X170.109Y-110.259
X170.141Y-101.075
X170.142Y-93.307
X170.157Y-94.058
X170.394Y-76.47
X170.404Y-75.382
X170.554Y-86.537
X170.576Y-82.913
X170.792Y-89.403
X170.922Y-74.266
X170.954Y-113.385
X171.615Y-72.74
X171.641Y-71.272
X172.465Y-96.907
X172.468Y-95.066
X172.47Y-98.864
X172.473Y-113.466
X172.475Y-94.254
X173.046Y-93.631
X173.436Y-98.824
X173.793Y-76.892
X173.843Y-80.091
X173.962Y-115.746
X175.076Y-86.894
X176.601Y-79.584
X177.564Y-94.186
X178.557Y-93.631
X179.393Y-71.952
T2
X136.189Y-90.533
X140.702Y-96.602
X150.548Y-82.645
X152.942Y-104.235
X154.109Y-90.298
X155.01Y-87.695
X157.808Y-88.602
X160.263Y-85.649
X162.86Y-88.785
X163.735Y-114.18
X163.889Y-92.697
X164.989Y-94.711
X169.46Y-108.203
X173.093Y-77.395
X174.455Y-94.444
X176.864Y-82.142
T3
X131.855Y-68.476
X131.855Y-72.883
T4
X131.795Y-109.211
X175.545Y-109.211
T0
M30
